<?xml version="1.0" standalone="no"?>
<!DOCTYPE svg PUBLIC "-//W3C//DTD SVG 20010904//EN"
 "http://www.w3.org/TR/2001/REC-SVG-20010904/DTD/svg10.dtd">
<svg version="1.0" xmlns="http://www.w3.org/2000/svg"
 width="500.000000pt" height="500.000000pt" viewBox="0 0 500.000000 500.000000"
 preserveAspectRatio="xMidYMid meet">
<metadata>
Created by potrace 1.11, written by Peter Selinger 2001-2013
</metadata>
<g transform="translate(0.000000,500.000000) scale(0.100000,-0.100000)"
fill="#000000" stroke="none">
<path d="M2297 4988 c-2 -9 14 -17 47 -25 67 -16 94 -17 79 -2 -6 6 -9 18 -6
25 7 18 -67 20 -85 2 -9 -9 -12 -9 -12 0 0 16 -17 15 -23 0z"/>
<path d="M2603 4960 c-10 -38 -9 -41 14 -47 16 -3 29 -1 35 8 7 11 11 11 15 2
6 -15 93 -18 93 -3 0 6 -4 10 -10 10 -5 0 -10 16 -10 35 l0 35 -63 0 -63 0
-11 -40z"/>
<path d="M2819 4988 c-1 -7 -1 -17 0 -22 4 -18 -9 -55 -25 -70 -14 -15 -8 -16
67 -11 84 5 122 15 56 15 l-37 0 16 38 c9 20 18 43 21 50 4 9 -9 12 -46 12
-33 0 -51 -4 -52 -12z"/>
<path d="M3023 4984 c17 -9 30 -26 34 -45 3 -16 11 -29 17 -28 23 3 37 -1 32
-10 -3 -4 7 -8 22 -8 43 0 137 -15 142 -23 3 -4 31 -9 63 -12 48 -4 60 -2 65
11 3 9 14 28 24 43 23 33 23 38 -2 38 -11 0 -20 5 -20 11 0 7 12 10 29 7 20
-3 32 1 40 14 10 16 7 18 -39 18 -43 0 -50 -3 -50 -20 0 -11 -6 -20 -13 -20
-8 0 -24 -11 -37 -25 -31 -33 -60 -33 -60 -1 0 14 -5 28 -11 31 -6 4 -8 13 -5
21 4 11 -6 14 -42 14 l-47 0 4 -46 c3 -43 2 -45 -20 -42 -13 2 -36 21 -54 45
-25 35 -36 42 -65 42 l-35 0 28 -15z"/>
<path d="M3500 4988 c0 -40 14 -88 25 -88 7 0 15 -7 19 -15 3 -9 18 -15 35
-15 16 0 33 -4 36 -10 3 -5 28 -10 56 -10 44 0 49 2 49 23 0 40 11 46 70 39
53 -7 55 -8 64 -44 8 -34 13 -38 40 -38 17 0 38 -4 46 -10 12 -8 12 -11 -3
-28 -9 -10 -17 -21 -17 -23 0 -3 31 -5 69 -5 65 1 69 2 79 29 6 15 7 27 3 27
-4 0 -15 6 -25 13 -16 12 -14 13 17 9 28 -3 38 1 54 22 27 34 42 33 55 -4 6
-18 19 -32 31 -35 105 -23 109 -24 102 -7 -3 10 -15 49 -26 87 -10 39 -27 76
-36 83 -19 14 -107 17 -98 3 10 -18 -15 -22 -37 -7 -13 9 -42 16 -68 15 -40 0
-42 -2 -22 -11 29 -14 28 -36 -4 -84 -16 -23 -22 -40 -15 -42 6 -2 11 -8 11
-13 0 -4 -6 -6 -14 -3 -8 3 -17 1 -21 -5 -9 -15 -21 -14 -40 6 -10 9 -27 18
-39 19 -39 4 -41 6 -14 13 l28 6 -30 45 c-17 26 -37 44 -45 42 -18 -3 -20 14
-2 21 6 3 -2 6 -20 6 -26 1 -30 -2 -26 -19 5 -17 0 -20 -27 -20 -27 0 -30 3
-25 21 6 18 3 20 -32 17 -36 -3 -39 -6 -47 -43 -4 -22 -13 -51 -18 -65 l-10
-25 -24 28 c-17 19 -24 40 -24 68 0 39 0 39 -40 39 -25 0 -40 -5 -40 -12z"/>
<path d="M4735 4983 c4 -10 11 -36 16 -58 5 -22 16 -56 24 -75 8 -19 24 -71
36 -115 11 -44 25 -84 29 -89 5 -4 42 -10 84 -11 l76 -4 0 58 0 58 -51 6 c-57
7 -99 29 -99 52 0 11 7 14 25 9 33 -8 33 13 0 28 -14 6 -24 16 -22 22 6 15 45
9 90 -14 21 -11 43 -18 48 -15 5 4 9 42 9 86 l0 79 -136 0 c-126 0 -136 -1
-129 -17z"/>
<path d="M3018 4913 c6 -2 18 -2 25 0 6 3 1 5 -13 5 -14 0 -19 -2 -12 -5z"/>
<path d="M2263 4869 c10 -6 17 -22 17 -39 0 -21 5 -30 16 -30 12 0 15 7 12 30
-3 21 0 30 9 30 32 0 1 16 -34 18 -30 2 -34 0 -20 -9z"/>
<path d="M2355 4860 c-4 -6 -2 -17 4 -24 7 -9 7 -16 -1 -24 -9 -9 -7 -12 9
-12 11 0 23 7 27 15 7 19 26 20 26 1 0 -8 7 -16 15 -20 11 -4 15 2 15 28 0 26
-5 35 -22 40 -35 9 -66 7 -73 -4z m65 -10 c0 -5 -9 -10 -20 -10 -11 0 -20 5
-20 10 0 6 9 10 20 10 11 0 20 -4 20 -10z"/>
<path d="M3417 4849 c7 -7 15 -10 18 -7 3 3 -2 9 -12 12 -14 6 -15 5 -6 -5z"/>
<path d="M2527 4835 c-4 -8 -1 -17 5 -21 7 -4 6 -9 -2 -14 -8 -5 -5 -9 9 -13
18 -4 21 -1 21 29 0 35 -22 48 -33 19z"/>
<path d="M2600 4831 c0 -5 9 -7 20 -4 11 3 20 7 20 9 0 2 -9 4 -20 4 -11 0
-20 -4 -20 -9z"/>
<path d="M3070 4833 c0 -12 -26 -23 -67 -28 -32 -3 -50 -20 -29 -28 8 -3 18
-2 21 3 10 17 22 11 28 -12 7 -26 -11 -42 -30 -26 -7 5 -18 8 -25 5 -15 -5 34
-27 62 -27 24 0 41 30 34 57 -5 16 1 22 28 28 26 6 29 9 13 12 -11 3 -23 10
-27 17 -6 8 -8 8 -8 -1z"/>
<path d="M3136 4825 c-8 -21 4 -104 16 -111 5 -4 19 4 31 17 l22 24 3 -23 c5
-34 30 -27 34 11 3 28 7 32 36 35 18 2 32 -1 32 -7 0 -6 -8 -11 -17 -11 -12 0
-18 -8 -19 -25 -2 -23 2 -25 37 -25 39 0 39 0 39 39 0 38 -1 38 -42 44 -23 3
-47 2 -53 -3 -6 -5 -18 -2 -29 6 -17 12 -21 11 -33 -6 -17 -24 -38 -27 -29 -5
3 9 -1 18 -9 21 -7 3 -11 12 -8 20 3 8 3 14 0 14 -3 0 -7 -7 -11 -15z m179
-85 c3 -5 -1 -10 -10 -10 -9 0 -13 5 -10 10 3 6 8 10 10 10 2 0 7 -4 10 -10z"/>
<path d="M3195 4830 c3 -5 8 -10 11 -10 2 0 4 5 4 10 0 6 -5 10 -11 10 -5 0
-7 -4 -4 -10z"/>
<path d="M2654 4814 c4 -9 2 -22 -4 -29 -9 -11 -7 -12 9 -8 25 6 28 38 5 47
-12 5 -15 2 -10 -10z"/>
<path d="M2710 4790 c0 -35 22 -40 52 -13 18 16 19 16 25 -5 8 -32 23 -27 23
7 0 34 -21 45 -47 26 -24 -19 -33 -18 -33 0 0 8 -4 15 -10 15 -5 0 -10 -13
-10 -30z"/>
<path d="M2843 4803 c-20 -7 -15 -41 6 -53 28 -15 33 -12 19 10 -17 27 3 50
27 30 18 -15 20 -36 3 -43 -7 -3 -3 -6 10 -6 33 -1 40 28 13 51 -22 17 -52 22
-78 11z"/>
<path d="M4188 4785 c3 -17 0 -25 -9 -26 -28 -3 47 -17 93 -18 26 0 50 -5 53
-11 3 -5 13 -10 21 -10 12 0 9 9 -12 33 -15 17 -31 33 -35 33 -5 1 -10 3 -11
4 -2 1 -16 4 -33 6 -16 2 -39 6 -51 8 -18 5 -20 2 -16 -19z"/>
<path d="M2488 4793 c7 -3 16 -2 19 1 4 3 -2 6 -13 5 -11 0 -14 -3 -6 -6z"/>
<path d="M2365 4710 c-15 -17 -21 -19 -30 -8 -17 21 -47 18 -67 -7 -11 -15
-25 -22 -34 -18 -10 4 -26 -5 -41 -21 -20 -22 -32 -26 -61 -24 -27 2 -43 -3
-62 -20 -19 -18 -33 -23 -56 -19 -27 5 -33 1 -45 -26 -8 -18 -20 -31 -27 -29
-18 3 -82 -25 -82 -37 0 -6 -7 -11 -15 -11 -8 0 -30 -13 -48 -30 -19 -16 -42
-30 -50 -30 -9 0 -22 -9 -31 -21 -13 -19 -18 -20 -49 -10 -48 16 -59 33 -52
74 6 28 3 37 -12 46 -10 6 -13 11 -5 11 7 0 10 5 7 11 -4 6 -9 8 -12 5 -3 -3
-14 4 -26 15 -11 10 -31 19 -44 19 -13 0 -23 6 -23 13 0 9 -3 8 -9 -2 -5 -7
-30 -16 -57 -19 -62 -7 -81 -28 -52 -59 12 -13 17 -27 12 -34 -5 -9 -2 -10 10
-6 10 4 19 7 22 7 2 0 1 7 -2 15 -4 8 -2 15 3 15 9 0 78 -69 72 -73 -2 -2 -21
-10 -42 -20 -21 -9 -40 -23 -43 -31 -3 -8 -31 -22 -62 -31 -31 -9 -63 -20 -71
-24 -23 -12 -51 -73 -51 -114 0 -43 -31 -98 -81 -142 -19 -16 -45 -50 -58 -75
-33 -60 -75 -102 -90 -89 -8 6 -8 6 -1 -3 6 -7 10 -30 10 -52 1 -26 8 -50 21
-65 l20 -24 27 19 c15 11 56 34 92 52 36 18 80 46 99 62 18 17 38 30 42 30 14
0 10 -16 -6 -30 -8 -7 -15 -21 -15 -31 0 -10 -9 -21 -21 -24 -14 -5 -18 -12
-14 -23 4 -10 8 -24 9 -32 0 -8 5 -18 11 -22 6 -5 5 -12 -4 -20 -11 -11 -14
-11 -18 0 -4 10 -9 9 -24 -4 -10 -9 -19 -14 -19 -11 0 5 -37 -4 -72 -18 -14
-5 -18 -2 -18 12 0 30 -9 33 -41 15 -27 -16 -31 -16 -56 0 -51 31 -67 37 -135
43 -70 7 -95 25 -34 25 19 0 37 6 39 13 3 7 6 5 6 -5 1 -20 16 -24 26 -8 8 13
-14 42 -26 34 -5 -3 -9 -1 -9 5 0 5 5 13 12 17 8 5 7 10 -4 18 -8 6 -17 20
-21 30 -6 16 -5 17 8 6 10 -8 15 -9 15 -1 0 6 5 11 10 11 6 0 10 -9 10 -20 0
-11 7 -20 15 -20 20 0 19 12 -5 37 -16 18 -25 20 -50 13 -37 -11 -48 3 -15 18
35 16 75 86 82 143 3 27 12 54 19 60 8 6 14 16 14 22 0 5 10 29 22 53 16 33
27 44 44 44 31 0 78 19 70 28 -4 4 -11 7 -14 7 -4 0 -13 4 -20 9 -8 4 -29 9
-48 10 -31 1 -34 -1 -30 -20 4 -16 1 -21 -12 -20 -18 1 -52 37 -52 54 0 5 -21
8 -47 6 -32 -2 -43 0 -33 6 12 8 10 10 -9 10 -15 0 -21 -5 -18 -13 3 -9 -4
-12 -24 -11 -31 2 -36 -5 -17 -24 15 -15 3 -15 -25 0 -20 10 -21 10 -8 -5 17
-22 7 -22 -26 1 -19 12 -25 13 -18 3 6 -11 4 -13 -10 -8 -11 5 -22 1 -31 -10
-7 -10 -14 -13 -14 -8 0 6 -12 11 -27 12 -16 0 -21 -2 -14 -7 9 -5 3 -11 -19
-18 -24 -9 -30 -9 -27 1 2 6 10 11 16 9 7 -1 10 2 7 7 -4 5 -26 8 -51 5 -27
-2 -45 0 -45 6 0 5 18 10 40 10 33 0 38 3 33 18 -18 49 -60 64 -120 41 -41
-15 -92 -3 -103 25 -14 38 -68 48 -108 20 -15 -10 -21 -22 -17 -33 4 -15 -11
-26 -82 -60 -161 -77 -173 -114 -53 -169 25 -12 38 -22 30 -22 -9 -1 -5 -5 8
-11 22 -8 23 -13 20 -89 -2 -61 0 -79 10 -75 17 6 15 -5 -6 -28 -16 -19 -16
-20 1 -14 11 4 17 1 17 -9 0 -8 -7 -17 -15 -20 -8 -4 -15 -12 -15 -20 0 -27
-61 -123 -102 -159 -27 -25 -34 -35 -19 -30 18 5 21 2 21 -19 0 -14 -5 -26
-10 -26 -6 0 -9 -6 -8 -12 2 -7 -3 -12 -9 -10 -7 1 -13 -5 -13 -13 0 -15 29
-26 74 -29 14 0 22 -6 19 -13 -3 -7 2 -13 10 -13 8 0 17 -5 19 -12 3 -9 6 -9
12 0 4 7 2 12 -3 12 -6 0 -11 6 -11 14 0 11 5 12 24 3 18 -9 22 -15 14 -24 -8
-10 -5 -13 13 -15 43 -2 74 3 81 15 6 9 8 9 8 0 0 -7 7 -13 15 -13 9 0 15 9
15 21 0 18 4 20 28 15 15 -3 21 -3 15 0 -7 3 -13 10 -13 15 0 12 57 12 65 -1
3 -5 24 -10 45 -10 21 0 42 -5 46 -11 3 -6 22 -9 40 -7 23 3 34 0 34 -9 0 -8
-13 -13 -34 -13 -29 0 -33 -3 -29 -20 7 -25 25 -36 76 -45 25 -5 37 -4 37 4 0
6 9 11 20 11 11 0 20 -5 20 -11 0 -7 18 -10 48 -7 37 2 47 0 45 -12 -3 -14 22
-17 79 -11 3 1 9 15 13 31 7 32 25 41 25 13 1 -17 1 -17 11 0 5 9 17 17 26 17
12 0 13 -3 4 -14 -9 -11 -7 -15 9 -19 11 -3 18 -1 14 4 -3 5 0 9 6 9 7 0 14
-9 17 -20 3 -11 11 -20 18 -20 7 0 16 -7 19 -16 9 -24 8 -27 -12 -22 -10 3
-26 0 -36 -7 -16 -12 -16 -13 0 -19 10 -4 21 -1 25 5 4 6 11 9 17 5 6 -3 12
-1 14 6 3 9 12 8 32 -5 25 -17 48 -23 99 -26 10 0 16 -5 13 -9 -3 -5 -19 -7
-36 -4 -45 7 -36 -14 12 -26 30 -8 46 -8 55 0 10 8 19 6 34 -8 19 -17 19 -19
2 -25 -10 -3 -28 -3 -40 2 -18 7 -23 5 -23 -7 0 -8 -4 -12 -10 -9 -6 3 -7 -1
-4 -9 3 -9 1 -16 -5 -16 -6 0 -11 -9 -11 -20 0 -12 -9 -40 -20 -62 -11 -23
-20 -46 -20 -52 0 -5 -6 -17 -13 -25 -22 -27 -40 -91 -29 -104 5 -7 8 -22 7
-34 -1 -16 4 -23 16 -23 14 0 17 11 18 65 1 67 21 130 29 91 2 -10 -1 -23 -6
-28 -7 -7 -7 -15 -1 -22 5 -6 19 -23 30 -39 11 -15 25 -25 29 -22 5 3 0 15
-10 25 -21 21 -28 90 -10 90 5 0 7 6 4 13 -3 8 4 13 18 12 31 0 50 -14 41 -28
-4 -7 -6 -19 -5 -29 2 -9 -2 -19 -8 -23 -16 -10 -12 -25 6 -25 13 0 14 -3 5
-14 -10 -11 -10 -20 0 -38 11 -21 11 -22 -4 -9 -15 11 -17 11 -17 -2 0 -19 31
-32 40 -17 4 6 5 22 3 34 -3 13 0 27 6 30 7 5 11 -2 11 -18 0 -18 4 -24 15
-20 26 10 19 -43 -7 -57 -25 -13 -38 -28 -38 -44 0 -5 5 -3 11 5 9 12 10 12 5
-3 -3 -10 -6 -21 -6 -23 0 -3 -4 -3 -8 0 -26 16 -1 -176 38 -284 25 -71 26
-101 2 -87 -13 9 -96 -38 -116 -66 -31 -42 -29 -186 4 -271 17 -45 12 -104
-10 -126 -11 -11 -24 -20 -30 -20 -12 0 -60 52 -60 65 0 21 -76 85 -132 110
-32 15 -58 30 -58 33 0 6 -48 11 -115 12 -11 1 -47 8 -80 16 -33 9 -70 16 -82
16 -14 0 -20 5 -16 14 4 10 0 12 -11 8 -10 -4 -15 -12 -12 -19 3 -8 -5 -12
-20 -12 -15 0 -24 5 -24 15 0 8 3 12 7 9 6 -7 33 11 33 22 0 4 -9 7 -19 7 -11
0 -17 -4 -15 -8 3 -4 0 -8 -7 -8 -6 0 -9 8 -7 18 4 13 -1 18 -20 20 -14 1 -33
8 -41 16 -11 10 -39 13 -93 12 -67 -2 -81 -6 -103 -26 -18 -17 -25 -32 -22
-48 3 -17 1 -21 -12 -17 -10 3 -23 -6 -36 -25 -11 -17 -24 -30 -29 -30 -5 0
-3 -7 4 -15 10 -11 10 -18 1 -29 -9 -11 -9 -15 1 -19 8 -3 -11 -27 -50 -63
-43 -41 -62 -66 -62 -83 0 -22 3 -20 28 15 16 22 59 64 95 93 l67 54 -30 15
c-35 17 -37 23 -11 46 30 27 59 12 82 -42 32 -74 88 -273 91 -322 l3 -45 -67
-2 -68 -2 3 31 c1 17 -2 32 -8 34 -19 7 -15 -74 5 -108 29 -50 44 -122 31
-146 -14 -27 -80 -67 -91 -56 -5 5 -10 29 -12 54 -4 58 -28 66 -47 15 -15 -43
-37 -54 -56 -29 -14 18 -14 18 -15 -3 0 -13 5 -23 10 -23 6 0 10 -5 10 -11 0
-5 -4 -7 -10 -4 -6 3 -10 -5 -10 -19 0 -14 7 -29 16 -34 14 -8 14 -10 0 -24
-15 -16 -16 -53 -2 -76 4 -7 3 -12 -2 -12 -5 0 -9 -27 -9 -60 0 -33 3 -57 8
-55 4 3 10 1 14 -4 3 -6 13 -7 23 -4 15 6 15 5 3 -10 -8 -11 -21 -15 -32 -12
-11 4 -19 2 -19 -3 0 -5 8 -12 19 -15 17 -4 18 -9 8 -56 -9 -46 -8 -53 9 -66
17 -12 20 -11 26 7 7 16 14 18 40 13 18 -4 38 -12 43 -17 7 -7 2 -8 -15 -3
-24 7 -24 7 -5 -9 11 -9 37 -20 57 -26 35 -10 37 -13 35 -48 -1 -40 26 -92 49
-92 8 0 14 -3 14 -7 0 -5 25 -9 55 -9 52 -2 55 -1 50 20 -6 20 -5 20 9 2 15
-18 16 -17 48 16 18 20 39 43 47 53 13 16 15 16 23 1 13 -23 74 -49 97 -41 13
4 21 2 21 -5 0 -9 16 -9 60 -1 3 1 -2 6 -10 11 -10 6 -11 10 -2 10 6 0 12 7
12 16 0 8 5 12 11 8 6 -3 9 -15 6 -25 -4 -16 -2 -17 16 -8 19 11 19 13 4 24
-21 15 -22 29 -2 21 8 -3 15 -3 15 0 0 2 -12 9 -26 14 -21 8 -25 16 -22 35 3
15 0 26 -9 29 -8 3 -13 0 -12 -7 3 -28 -2 -48 -11 -42 -14 9 -12 -8 3 -25 10
-12 9 -12 -5 -1 -10 7 -24 11 -32 8 -11 -4 -12 2 -5 31 5 20 9 40 9 43 0 3 6
6 13 6 6 0 17 2 24 4 16 5 103 -53 103 -68 0 -7 -4 -13 -9 -13 -5 0 -8 -11 -8
-25 0 -35 14 -31 22 5 4 17 11 28 15 25 5 -3 6 -13 3 -23 -6 -15 -5 -15 11 -3
12 10 14 17 6 25 -18 18 -12 46 10 46 32 0 23 18 -15 31 -19 7 -35 17 -35 23
0 5 -3 6 -7 3 -7 -7 -33 11 -33 23 0 4 18 -1 39 -12 22 -10 58 -21 82 -23 23
-3 50 -7 60 -10 9 -3 20 -2 23 3 8 13 -57 55 -117 77 -33 13 -44 21 -35 26 18
12 48 11 48 -1 0 -21 15 -9 16 14 2 28 -32 48 -66 39 -21 -5 -22 -3 -16 20 4
16 2 27 -4 27 -10 0 -14 -14 -11 -38 3 -20 -50 -10 -63 12 -8 14 -8 20 2 23
17 6 15 23 -2 23 -13 0 -16 30 -7 59 0 2 8 -2 16 -9 9 -7 18 -10 22 -6 3 3 1
6 -5 6 -7 0 -12 4 -12 9 0 5 60 9 136 9 74 0 138 3 141 6 4 3 -37 6 -89 6
-106 0 -125 9 -114 56 l7 26 -23 -26 c-26 -31 -89 -49 -123 -36 -36 14 -65 51
-65 84 0 60 78 156 127 156 39 0 83 -68 86 -131 1 -39 2 -39 14 -14 8 14 27
28 46 33 l32 9 -28 11 c-37 16 -34 37 10 66 55 38 129 52 199 37 32 -6 59 -9
62 -6 3 2 -14 7 -37 11 -22 4 -41 10 -41 15 0 4 23 39 52 76 45 59 124 210
116 219 -2 2 -25 -32 -51 -74 -51 -84 -89 -132 -104 -132 -20 0 -53 48 -68
100 l-15 55 5 -78 c3 -45 13 -97 24 -122 l19 -43 -52 -6 c-28 -4 -70 -18 -93
-32 -23 -13 -45 -24 -49 -24 -3 0 -4 82 -1 183 5 191 22 277 60 301 27 17 83
-17 121 -76 43 -67 70 -85 102 -67 47 25 56 137 19 226 -8 19 -15 53 -15 75 0
33 7 47 38 78 35 35 105 66 124 54 4 -3 8 -13 8 -23 0 -14 -10 -20 -40 -24
-55 -7 -70 -22 -70 -69 0 -47 31 -106 101 -192 36 -45 48 -67 44 -83 -3 -12
-1 -24 3 -27 5 -3 8 -40 7 -83 -1 -51 3 -88 12 -106 27 -54 14 -87 -51 -132
-32 -23 -64 -55 -71 -71 -18 -42 -92 -112 -166 -156 -34 -21 -56 -38 -48 -38
8 0 38 16 68 35 29 19 55 35 57 35 18 0 71 54 100 102 21 34 43 58 52 58 9 0
30 11 47 24 24 19 31 21 42 10 7 -7 13 -24 13 -38 0 -14 3 -26 8 -26 13 0 34
-59 27 -79 -3 -11 -1 -22 5 -26 6 -4 8 -14 6 -23 -3 -10 -2 -23 3 -31 6 -9 5
-24 -2 -39 -10 -22 -9 -27 11 -40 12 -8 22 -20 22 -26 0 -6 9 -17 19 -23 15
-10 18 -22 16 -63 -1 -27 1 -53 6 -56 5 -3 7 -10 4 -15 -4 -5 -3 -15 2 -21 4
-7 8 -33 10 -58 3 -77 -70 -160 -140 -160 -39 0 -95 -28 -102 -51 -4 -12 -16
-19 -31 -19 -14 0 -46 -11 -72 -23 -26 -13 -84 -36 -129 -51 -45 -14 -94 -33
-110 -41 -15 -8 -34 -15 -41 -15 -20 0 -114 -30 -143 -45 -14 -8 -38 -19 -53
-24 -25 -10 -26 -9 -20 17 5 18 3 24 -4 17 -5 -5 -12 -19 -14 -29 -1 -11 -9
-21 -17 -24 -10 -3 -13 3 -9 27 3 21 0 31 -9 31 -7 0 -13 -9 -13 -19 0 -31
-11 -51 -27 -51 -12 0 -13 8 -8 41 6 33 4 40 -6 37 -8 -3 -15 -22 -17 -44 -3
-35 -15 -53 -34 -54 -3 0 -4 18 -1 40 4 26 2 40 -6 40 -10 0 -16 -32 -13 -72
2 -16 -13 -24 -58 -33 -11 -2 -35 -11 -52 -19 -17 -9 -65 -23 -107 -31 -42 -8
-122 -29 -178 -47 l-103 -31 0 -234 0 -233 2425 0 c1334 0 2425 3 2425 6 0 10
-33 79 -41 84 -3 3 -9 14 -13 25 -3 11 -24 40 -46 64 -22 24 -40 47 -40 52 0
5 -6 9 -12 9 -7 0 -28 17 -46 38 -32 39 -109 82 -207 117 -37 14 -94 22 -89
14 3 -5 -2 -9 -10 -9 -23 0 -31 4 -29 13 2 4 -10 7 -26 7 -17 0 -33 5 -36 10
-4 7 -12 7 -25 0 -15 -8 -21 -6 -29 7 -5 10 -13 15 -17 10 -4 -4 1 -16 11 -27
32 -35 7 -22 -39 22 -25 22 -42 46 -39 51 4 6 0 8 -10 4 -10 -3 -17 -2 -17 2
0 14 -118 103 -175 133 -48 25 -117 49 -180 63 l-30 7 28 -26 c16 -14 32 -26
38 -26 5 0 9 -5 9 -11 0 -5 -5 -7 -12 -3 -6 4 0 -14 14 -39 15 -26 22 -47 17
-47 -5 0 -9 4 -9 10 0 5 -13 23 -30 38 -16 16 -30 33 -30 38 -1 5 -10 20 -21
33 -15 19 -22 22 -28 12 -6 -9 -13 -2 -24 21 -14 29 -65 78 -82 78 -4 0 -4 -8
-1 -17 3 -10 2 -31 -3 -48 -5 -16 -10 -24 -10 -17 -1 6 -7 12 -15 12 -9 0 -14
-9 -13 -20 1 -11 8 -20 17 -20 13 0 13 -2 0 -10 -17 -10 -40 5 -40 26 0 8 -7
14 -16 14 -9 0 -14 6 -11 13 2 6 -5 27 -15 45 -10 18 -18 37 -18 43 0 6 -16
25 -35 44 -20 18 -32 35 -27 37 13 4 24 58 13 58 -20 0 -23 41 -5 61 9 10 14
22 10 26 -4 4 -11 1 -16 -7 -6 -10 -8 0 -5 27 2 24 6 47 10 53 3 5 8 20 10 31
3 12 12 30 20 39 9 10 17 24 18 32 2 7 10 24 20 38 9 13 17 39 17 57 0 17 4
34 9 38 5 3 15 31 21 63 6 31 21 93 32 137 12 44 20 88 20 98 0 9 2 17 6 17 4
0 8 20 10 45 1 24 14 69 27 100 14 32 28 86 32 127 3 40 12 83 20 97 7 15 13
34 13 44 0 23 -28 34 -43 17 -9 -10 -9 -11 1 -6 17 10 15 -5 -4 -33 -12 -16
-19 -20 -27 -12 -20 20 -28 11 -21 -24 4 -23 2 -35 -5 -35 -6 0 -11 -14 -11
-31 0 -16 -4 -28 -9 -25 -5 3 -12 -10 -15 -30 -6 -29 -10 -33 -22 -24 -12 11
-14 4 -14 -46 -1 -54 -2 -57 -15 -40 -18 23 -34 13 -19 -12 13 -21 7 -52 -10
-52 -17 0 -51 -38 -43 -47 4 -3 2 -12 -4 -20 -7 -7 -9 -28 -6 -46 5 -32 4 -33
-24 -29 -17 3 -29 0 -29 -7 0 -6 4 -11 8 -11 4 0 8 -9 9 -20 1 -11 -3 -20 -9
-20 -5 0 -8 -6 -5 -14 4 -10 -5 -16 -29 -21 -19 -3 -32 -10 -30 -14 3 -4 1
-23 -4 -42 -10 -36 -74 -104 -89 -95 -5 3 -11 -3 -14 -13 -2 -11 -15 -21 -28
-23 -16 -2 -25 -11 -27 -25 -3 -18 -10 -23 -31 -23 -20 0 -32 -8 -42 -27 -18
-35 -28 -43 -48 -36 -13 5 -14 3 -3 -8 6 -7 12 -21 12 -31 0 -15 -5 -17 -27
-13 -60 13 -139 40 -165 58 -21 13 -28 15 -28 5 -1 -9 -5 -7 -14 5 -7 9 -23
17 -36 17 -17 0 -21 4 -17 20 3 13 0 20 -10 20 -8 0 -11 -5 -8 -12 4 -7 0 -5
-9 6 -8 10 -20 15 -25 11 -6 -3 -14 1 -17 9 -3 9 -10 13 -15 10 -5 -3 -7 -10
-4 -15 4 -5 0 -9 -7 -9 -7 1 -25 17 -40 37 -28 36 -28 36 -28 10 0 -15 9 -32
20 -40 18 -13 19 -15 5 -21 -23 -8 -23 -8 -28 11 -4 14 -5 12 -6 -4 0 -13 -6
-23 -12 -23 -6 0 -9 14 -6 35 4 28 0 38 -16 50 -15 11 -24 12 -34 3 -9 -7 -13
-7 -13 1 0 10 6 13 39 15 8 1 16 7 19 14 2 7 -2 13 -9 11 -35 -4 -57 3 -62 20
-3 14 -11 17 -31 14 -33 -7 -33 2 2 32 22 20 24 24 9 25 -13 0 -17 5 -12 19 3
12 0 21 -10 25 -8 3 -15 11 -15 17 0 7 3 9 7 6 3 -4 12 -2 19 4 9 8 16 3 28
-18 13 -24 15 -26 21 -10 4 10 20 24 35 32 23 12 31 12 55 -1 24 -12 31 -12
50 0 15 10 26 11 40 3 10 -5 30 -11 44 -12 14 -1 35 -3 47 -3 11 -1 26 -12 33
-25 7 -13 28 -29 46 -36 19 -7 57 -27 84 -46 34 -24 59 -34 80 -32 31 2 45 17
16 17 -8 0 -15 4 -15 8 0 5 -12 15 -26 23 -14 7 -30 24 -35 37 -5 13 -13 21
-18 18 -5 -3 -14 1 -21 9 -7 8 -17 15 -22 15 -5 0 -21 9 -34 19 -14 11 -57 30
-97 42 -40 12 -77 26 -84 31 -6 5 -17 8 -25 7 -12 -2 -26 2 -76 22 -13 5 -28
7 -33 4 -5 -4 -9 -2 -9 4 0 5 14 18 30 28 17 9 30 20 30 24 0 4 25 5 56 3 49
-3 57 -1 61 16 3 11 14 22 24 25 10 4 19 12 19 18 0 7 10 18 21 25 15 10 18
17 11 24 -8 8 -16 6 -27 -6 -20 -19 -28 -21 -22 -3 2 6 -2 20 -11 30 -14 15
-13 17 4 17 18 1 18 1 1 11 -9 5 -22 7 -28 4 -6 -4 -9 3 -6 20 2 16 15 33 35
45 39 24 47 41 35 76 -7 21 -17 28 -42 30 -39 5 -64 -7 -112 -53 l-35 -34 -12
25 c-13 29 -58 55 -102 60 -37 4 -70 32 -70 59 0 11 -5 17 -13 14 -7 -3 -21 1
-31 9 -16 11 -17 16 -5 30 11 14 11 18 -6 30 -15 11 -15 14 -4 14 9 0 16 6 17
13 3 32 10 51 20 55 7 2 12 11 12 19 0 10 -6 13 -16 9 -14 -5 -15 -4 -5 8 6 8
10 26 7 41 -3 14 -1 37 4 50 5 14 6 26 2 29 -4 2 -6 42 -5 87 l2 84 44 41 c36
35 49 41 73 37 55 -10 117 -87 154 -193 13 -36 27 -69 31 -75 3 -5 10 -25 14
-42 10 -49 28 -41 20 9 -7 37 -6 40 11 33 111 -48 249 -75 379 -75 162 0 349
29 421 66 39 20 75 89 103 202 24 91 40 132 53 132 4 0 8 -15 8 -33 0 -17 4
-48 10 -67 6 -22 6 -36 0 -40 -16 -10 -9 -123 8 -143 24 -27 32 -4 32 89 0
122 44 164 49 46 2 -71 18 -111 41 -105 22 6 50 60 49 94 0 13 2 49 6 81 6 52
5 57 -15 63 -14 4 -39 -2 -73 -19 -32 -16 -55 -22 -61 -16 -9 9 -11 44 -5 128
2 45 19 59 19 17 0 -32 10 -32 46 4 30 30 67 95 79 141 4 14 18 48 32 77 16
33 25 69 25 100 0 26 5 61 12 78 17 42 13 89 -7 93 -12 3 -17 14 -17 41 0 21
-4 51 -10 67 -5 16 -12 45 -14 64 -6 45 -26 120 -37 142 -5 10 -9 26 -9 37 0
11 -8 27 -17 37 -17 16 -46 104 -38 113 8 7 27 -12 36 -36 5 -13 15 -23 22
-20 15 5 11 58 -8 94 -8 15 -11 32 -6 37 17 25 -1 56 -29 49 -22 -6 -26 7 -9
24 6 6 7 13 2 16 -5 3 -7 23 -5 45 4 39 4 40 55 48 29 4 60 7 70 6 17 -2 21 7
18 39 -2 22 23 31 55 18 15 -5 27 -8 28 -7 19 33 26 62 15 68 -15 10 -3 30 19
30 15 0 15 2 2 10 -13 8 -13 13 3 40 10 16 14 30 9 30 -6 0 -19 -20 -31 -44
-28 -60 -63 -96 -94 -96 -14 0 -28 -4 -32 -10 -3 -5 -12 -7 -20 -4 -8 3 -20 2
-27 -2 -7 -5 -27 -7 -45 -5 -20 1 -33 -2 -33 -9 0 -8 18 -11 55 -8 30 1 55 0
55 -4 0 -17 -50 -38 -95 -40 -43 -3 -51 0 -60 20 -5 12 -15 22 -22 22 -7 0
-13 5 -13 10 0 6 -8 23 -17 37 -26 40 -28 72 -3 81 l21 8 -21 22 c-11 12 -26
22 -32 22 -6 0 -9 -3 -5 -6 6 -6 -23 -44 -34 -44 -4 0 -16 16 -28 35 -11 19
-27 35 -34 35 -26 0 -77 31 -97 60 -12 16 -40 38 -63 48 -23 11 -55 33 -71 50
l-28 31 30 55 c16 31 26 56 20 56 -5 0 -12 -9 -15 -20 -3 -11 -12 -20 -19 -20
-19 0 -18 7 7 47 12 19 20 36 17 38 -7 8 -98 -87 -98 -103 0 -13 -2 -13 -14 3
-8 11 -28 19 -52 21 -21 1 -42 2 -46 3 -4 1 -19 12 -34 26 -15 14 -34 26 -43
26 -9 1 -28 3 -43 5 -16 2 -39 5 -52 7 -13 1 -27 5 -31 9 -4 4 -13 4 -20 2 -8
-3 -18 4 -25 15 -6 12 -20 21 -32 21 -12 0 -30 7 -40 16 -14 14 -21 14 -32 4
-11 -8 -51 -11 -133 -9 -138 3 -153 6 -153 27 0 12 -3 13 -12 4 -18 -18 -66
-15 -70 4 -2 14 -6 13 -23 -6z m-2027 -310 c1 -9 -5 -16 -15 -16 -10 0 -30 -3
-45 -7 -23 -6 -28 -4 -28 11 0 27 10 33 50 30 22 -2 36 -9 38 -18z m138 -66
c11 -35 11 -36 -13 -31 -14 3 -37 -1 -52 -9 -14 -7 -35 -16 -46 -20 -18 -6
-18 -7 8 -16 26 -9 38 -28 17 -28 -19 0 -60 32 -60 46 0 16 31 34 58 34 13 0
22 9 26 24 5 21 14 27 46 35 3 0 10 -15 16 -35z m290 -78 c9 -23 -27 -87 -55
-98 -41 -16 -109 -18 -122 -2 -8 10 -5 19 15 39 l26 26 -23 8 c-12 5 -28 6
-34 4 -7 -3 -13 0 -13 6 0 6 18 11 43 12 49 0 130 9 136 15 9 8 22 3 27 -10z
m-254 -29 c15 -15 34 -27 43 -27 8 0 15 -7 15 -15 0 -20 -8 -19 -49 6 -19 11
-37 16 -40 11 -6 -8 -45 -32 -53 -32 -9 0 -4 76 5 81 19 13 53 2 79 -24z
m-101 -64 c13 -17 13 -17 -6 -3 -11 8 -22 16 -24 17 -2 2 0 3 6 3 6 0 17 -8
24 -17z m124 6 c11 -17 0 -20 -21 -4 -17 13 -17 14 -2 15 9 0 20 -5 23 -11z
m-25 -29 c0 -5 -2 -10 -4 -10 -3 0 -8 5 -11 10 -3 6 -1 10 4 10 6 0 11 -4 11
-10z m-240 -20 c0 -5 -7 -10 -16 -10 -8 0 -12 5 -9 10 3 6 10 10 16 10 5 0 9
-4 9 -10z m278 -2 c-6 -17 -36 -34 -44 -25 -4 4 1 14 12 22 23 18 37 19 32 3z
m172 -43 c7 -8 8 -15 2 -15 -5 0 -15 7 -22 15 -7 8 -8 15 -2 15 5 0 15 -7 22
-15z m54 -57 c-6 -9 -34 -11 -34 -3 0 3 6 12 13 19 12 14 31 0 21 -16z m581
-7 c3 -5 1 -12 -5 -16 -5 -3 -10 1 -10 9 0 18 6 21 15 7z m2161 -39 c-4 -3
-14 2 -24 12 -16 18 -16 18 6 6 13 -6 21 -14 18 -18z m42 7 c19 -30 6 -37 -18
-9 -23 27 -24 30 -7 30 7 0 18 -9 25 -21z m-170 -82 l22 -21 -6 35 c-7 33 -6
33 12 18 10 -9 29 -20 42 -24 33 -10 90 -72 97 -106 4 -16 11 -29 16 -29 6 0
7 -4 4 -10 -3 -5 1 -20 10 -34 9 -13 15 -28 14 -32 -1 -5 -1 -11 1 -14 9 -24
9 -85 0 -90 -7 -5 1 -23 24 -53 20 -26 33 -47 28 -47 -4 0 0 -4 8 -10 12 -7
12 -11 -3 -28 -10 -11 -17 -23 -16 -28 4 -21 -2 -34 -14 -34 -13 0 -17 -17
-17 -75 0 -43 6 -108 13 -125 7 -20 21 -112 18 -124 -1 -5 4 -13 11 -18 9 -7
10 -11 2 -14 -9 -4 -9 -17 0 -52 7 -26 10 -58 6 -72 -6 -24 -9 -25 -64 -22
-91 6 -138 23 -161 60 -11 17 -25 31 -30 32 -6 0 -22 13 -35 30 -14 16 -32 29
-40 30 -19 0 -87 24 -96 33 -4 4 -20 7 -36 7 -17 0 -31 6 -35 16 -3 8 -11 13
-17 11 -18 -7 -38 19 -23 31 37 29 54 31 93 13 29 -15 45 -16 72 -9 18 5 41 6
50 2 17 -7 31 -9 90 -17 18 -2 35 -7 39 -11 10 -10 55 -7 48 4 -3 6 -13 10
-21 10 -21 0 -74 41 -68 52 3 5 15 6 27 3 22 -6 22 -6 2 10 -11 8 -27 21 -35
28 -8 7 -23 11 -32 9 -10 -2 -18 1 -18 7 0 6 -7 11 -15 11 -8 0 -15 7 -15 16
0 12 -5 14 -17 9 -10 -4 -30 -7 -45 -6 -16 0 -46 1 -68 2 -39 2 -53 13 -27 22
8 3 7 7 -5 12 -11 4 -24 1 -33 -9 -9 -9 -23 -16 -31 -16 -8 0 -28 -7 -44 -15
-16 -8 -46 -17 -66 -20 -21 -2 -60 -12 -88 -22 -28 -9 -55 -17 -61 -18 -26 -3
-66 -26 -72 -42 -4 -10 -16 -27 -26 -38 -10 -11 -23 -31 -28 -44 -8 -19 -12
-21 -24 -11 -10 9 -15 9 -15 1 0 -16 -16 -14 -34 4 -21 21 -28 19 -20 -7 6
-20 5 -21 -10 -9 -10 8 -14 21 -11 32 4 11 2 19 -4 19 -6 0 -11 -5 -11 -11 0
-6 -7 -3 -16 5 -20 21 -36 20 -80 -3 -33 -18 -37 -18 -65 -3 -16 10 -29 20
-29 25 0 4 -5 7 -10 7 -15 0 -80 44 -80 54 0 4 7 5 16 2 8 -3 12 -2 9 4 -3 6
-11 10 -18 10 -6 0 -21 11 -32 24 -11 13 -41 34 -65 47 -25 12 -55 31 -66 41
-12 11 -31 20 -42 21 -11 0 -20 6 -19 11 1 5 -7 12 -18 14 -10 2 -30 11 -43
20 -18 11 -20 17 -10 23 9 6 5 9 -12 9 -24 1 -25 1 -5 16 14 10 16 17 8 22
-18 11 -32 57 -23 72 6 10 12 11 22 3 7 -5 75 -11 154 -12 114 -1 141 1 141
12 0 8 -7 12 -17 10 -10 -3 -21 5 -28 22 -22 47 -19 48 91 40 159 -12 194 -12
317 2 63 7 136 14 163 15 53 3 65 18 14 18 -43 0 -68 26 -56 58 5 13 13 21 18
18 5 -3 14 1 21 9 6 7 18 11 26 8 8 -3 22 3 32 14 9 11 26 23 37 28 17 7 18 9
3 12 -15 4 -14 7 5 26 12 12 25 21 29 20 4 -2 14 7 22 20 14 20 23 22 89 21
89 -2 104 4 86 34 -17 28 -5 38 26 24 31 -15 65 -16 65 -2 0 5 7 7 15 4 10 -4
15 0 15 15 l0 21 38 -21 c20 -12 47 -30 60 -42z m222 53 c0 -5 -5 -10 -11 -10
-5 0 -7 5 -4 10 3 6 8 10 11 10 2 0 4 -4 4 -10z m9 -57 c6 -20 8 -39 6 -42 -3
-2 -19 8 -35 24 -23 22 -27 32 -19 42 20 23 38 14 48 -24z m-91 -1 c6 -19 -13
-14 -33 8 -18 20 -18 21 5 12 13 -5 26 -14 28 -20z m213 -129 c-1 -12 5 -33
15 -48 9 -14 14 -28 11 -32 -11 -11 -33 15 -63 74 -16 32 -34 63 -40 68 -6 6
-14 20 -17 33 -4 18 -3 21 7 12 10 -7 17 -6 26 5 11 13 16 8 38 -37 14 -29 25
-63 23 -75z m-2946 47 c3 -5 -1 -10 -10 -10 -9 0 -13 5 -10 10 3 6 8 10 10 10
2 0 7 -4 10 -10z m-607 -108 c10 -10 26 -21 35 -25 9 -3 17 -11 17 -17 0 -15
-26 -12 -44 5 -8 8 -26 19 -40 25 -14 5 -26 14 -26 20 0 17 39 11 58 -8z
m2492 -13 c0 -5 -7 -9 -15 -9 -8 0 -15 -5 -15 -11 0 -6 7 -8 15 -5 9 3 18 -1
22 -10 7 -18 -5 -33 -15 -19 -4 6 -16 15 -26 21 -28 15 -29 28 -4 40 25 11 38
9 38 -7z m-1835 -49 c3 -5 1 -10 -4 -10 -6 0 -11 5 -11 10 0 6 2 10 4 10 3 0
8 -4 11 -10z m78 -21 c3 -11 0 -19 -8 -19 -17 0 -38 27 -31 39 10 15 33 3 39
-20z m-735 12 c31 12 56 4 46 -13 -4 -7 1 -6 12 4 17 14 21 14 33 1 16 -18 9
-25 -24 -25 -14 0 -28 -4 -31 -9 -3 -5 -15 -2 -27 6 -12 8 -29 15 -39 15 -10
0 -18 7 -18 17 0 13 3 14 11 6 8 -8 19 -9 37 -2z m948 -3 c3 -4 16 -8 30 -8
14 0 24 -6 24 -14 0 -8 6 -16 13 -19 10 -4 10 -7 0 -18 -11 -11 -13 -11 -13 2
0 12 -2 12 -10 -1 -8 -13 -10 -13 -10 2 0 22 -12 29 -30 17 -13 -8 -13 -11 1
-22 14 -11 11 -12 -22 -12 -41 0 -49 18 -19 42 20 16 -3 17 -29 1 -15 -9 -22
-8 -36 5 -19 19 -35 22 -35 6 0 -5 5 -7 10 -4 6 3 10 2 10 -4 0 -17 -19 -23
-50 -16 -28 6 -31 13 -21 53 2 7 183 -3 187 -10z m2628 -12 c-6 -15 -24 -23
-24 -11 0 8 24 34 28 30 1 -1 0 -10 -4 -19z m-2534 -6 c0 -5 -8 -10 -17 -10
-15 0 -16 2 -3 10 19 12 20 12 20 0z m1017 -26 c7 -9 10 -21 7 -25 -3 -5 0 -9
7 -9 7 0 9 -3 6 -7 -4 -3 -16 2 -27 12 -11 10 -20 15 -20 10 0 -4 -6 -3 -13 3
-7 6 -23 9 -35 5 -13 -3 -22 -1 -22 6 0 5 -7 8 -15 5 -11 -5 -13 -2 -9 11 6
14 16 16 58 11 31 -3 55 -12 63 -22z m-1184 -4 c8 0 8 -3 0 -11 -13 -13 -43
-5 -43 12 0 6 7 8 16 5 9 -3 21 -6 27 -6z m2715 -46 l-3 -29 -17 34 c-20 37
-14 61 9 38 8 -8 13 -27 11 -43z m-84 30 c3 -8 2 -12 -4 -9 -6 3 -10 10 -10
16 0 14 7 11 14 -7z m-1728 -43 c-4 -5 -2 -12 4 -16 17 -10 12 -55 -6 -55 -10
0 -13 6 -10 18 8 24 -29 48 -38 25 -5 -11 -10 -13 -17 -6 -18 18 1 39 37 41
21 2 33 -1 30 -7z m1752 -50 c-14 -5 -38 27 -38 48 0 11 8 6 24 -14 14 -17 20
-32 14 -34z m102 -13 c0 -6 -7 -5 -15 2 -8 7 -15 17 -15 22 0 6 7 5 15 -2 8
-7 15 -17 15 -22z m-2786 -10 c8 -12 12 -26 9 -32 -5 -7 -8 -7 -10 1 -2 5 -15
8 -28 5 -20 -3 -25 0 -25 16 0 18 11 29 32 31 4 1 14 -9 22 -21z m111 3 c6
-11 -33 -26 -43 -16 -4 3 0 10 8 15 19 12 27 12 35 1z m45 -25 c0 -2 -7 -7
-16 -10 -8 -3 -12 -2 -9 4 6 10 25 14 25 6z m-4 -218 c-3 -13 -5 -26 -5 -30
-1 -5 -5 -8 -10 -8 -5 0 -9 14 -9 30 1 18 6 30 14 30 9 0 12 -8 10 -22z m-46
-63 c0 -5 -5 -3 -10 5 -5 8 -10 20 -10 25 0 6 5 3 10 -5 5 -8 10 -19 10 -25z
m35 6 c3 -5 1 -12 -5 -16 -5 -3 -10 1 -10 9 0 18 6 21 15 7z m2063 -197 c40
-11 23 -23 -25 -19 -27 2 -59 5 -73 6 -23 1 -23 2 5 9 39 10 65 11 93 4z
m-698 -64 c0 -10 -25 -20 -51 -20 -24 0 -25 17 -1 22 34 7 52 7 52 -2z m805
-11 c5 -5 6 -9 2 -9 -4 0 2 -18 13 -40 24 -48 34 -50 55 -10 19 36 19 38 -2
43 -14 4 -13 5 4 6 35 2 110 -36 130 -65 15 -23 18 -49 18 -148 0 -144 -18
-209 -70 -254 -59 -52 -193 -83 -355 -81 l-85 1 59 9 c32 5 61 11 63 13 3 2
-26 5 -64 5 -265 5 -302 9 -346 34 -54 32 -99 107 -128 211 -24 91 -23 174 5
205 17 19 18 18 43 -5 15 -14 37 -27 50 -30 13 -4 23 -9 24 -13 12 -106 30
-143 118 -232 37 -38 71 -69 74 -69 4 0 23 -17 42 -39 39 -43 89 -58 113 -34
7 7 18 11 23 8 5 -4 9 -2 9 4 0 6 11 13 25 17 24 6 35 24 15 24 -5 0 -10 5
-10 11 0 5 10 9 23 7 16 -2 21 2 19 14 -1 10 9 25 25 35 42 27 53 40 53 62 0
14 -6 21 -18 21 -30 0 -44 21 -24 37 9 8 11 12 4 8 -12 -6 -114 -10 -157 -6
-18 2 -17 4 5 13 14 6 34 13 45 15 37 7 67 35 87 81 26 58 23 56 45 44 31 -17
115 -24 110 -9 -2 6 -11 11 -19 9 -9 -1 -30 13 -47 33 -16 19 -35 35 -40 35
-5 0 -11 5 -13 12 -2 6 -13 12 -24 14 -33 4 -64 16 -64 25 0 11 152 0 165 -12z
m-727 -79 c-7 -10 -14 -18 -15 -16 -6 6 9 36 18 36 5 0 4 -9 -3 -20z m-108 -4
c0 -3 -4 -8 -10 -11 -5 -3 -10 -1 -10 4 0 6 5 11 10 11 6 0 10 -2 10 -4z m526
-51 c0 -11 6 -33 12 -48 7 -16 9 -33 6 -39 -4 -6 0 -14 7 -19 12 -8 11 -11 -2
-22 -9 -6 -18 -17 -20 -23 -2 -6 -18 4 -35 22 -17 19 -26 34 -19 34 25 0 27
34 3 53 -18 15 -19 18 -4 13 13 -5 17 -2 12 9 -8 22 4 46 23 43 9 -2 16 -12
17 -23z m-1566 -115 c0 -5 -5 -10 -11 -10 -5 0 -7 5 -4 10 3 6 8 10 11 10 2 0
4 -4 4 -10z m-182 -321 l2 -34 -19 23 c-11 13 -17 30 -14 38 9 25 28 9 31 -27z
m1685 24 c-7 -2 -19 -2 -25 0 -7 3 -2 5 12 5 14 0 19 -2 13 -5z m-2557 -48
c27 -17 33 -57 35 -215 1 -95 3 -114 9 -80 5 25 9 77 10 117 2 39 6 76 10 83
10 16 116 16 136 -1 15 -12 16 -28 10 -142 -3 -71 -13 -163 -22 -204 -15 -75
-66 -216 -86 -240 -8 -10 -6 -13 7 -13 10 0 16 3 12 6 -3 4 5 28 19 55 18 37
30 49 47 49 17 0 19 2 8 9 -12 8 -13 16 -3 48 7 21 17 96 24 166 12 122 13
128 33 122 11 -4 51 -9 88 -12 67 -5 68 -6 62 -32 -13 -65 -24 -184 -25 -273
0 -90 -8 -116 -26 -87 -6 11 -107 59 -122 59 -4 0 2 -8 13 -16 20 -16 20 -16
-2 -31 -75 -51 -105 -111 -91 -180 6 -25 7 -47 3 -51 -4 -4 -43 -9 -87 -11
l-81 -3 7 23 c27 95 47 183 52 236 6 53 10 62 28 65 11 2 -16 12 -61 22 -82
19 -83 20 -83 50 0 37 -35 174 -84 338 -20 65 -36 122 -36 127 0 9 37 26 75
34 30 7 97 -3 121 -18z m404 -126 c22 -7 40 -15 40 -19 0 -16 -33 -85 -44 -93
-12 -9 -108 0 -143 14 -20 7 -23 15 -23 65 l0 57 65 -6 c36 -4 83 -12 105 -18z
m-672 -30 c-2 -6 -8 -10 -13 -10 -5 0 -11 4 -13 10 -2 6 4 11 13 11 9 0 15 -5
13 -11z m2390 -281 c-6 -18 -28 -21 -28 -4 0 9 7 16 16 16 9 0 14 -5 12 -12z
m-2240 -90 c5 -7 13 -40 17 -73 l7 -60 19 24 c11 14 19 39 19 62 0 36 2 39 28
39 16 0 37 -6 47 -14 17 -12 17 -19 6 -87 -14 -92 -51 -221 -65 -231 -12 -9
-66 0 -79 12 -5 4 -1 31 7 60 9 30 14 55 13 57 -2 2 -23 -18 -47 -43 -36 -38
-47 -45 -69 -39 -65 16 -66 40 -1 89 54 41 55 48 23 140 -18 53 -17 64 10 69
42 8 55 7 65 -5z m2110 -126 c27 -24 42 -52 28 -52 -14 0 -75 32 -86 45 -12
14 -11 18 1 26 20 13 22 12 57 -19z m-2352 -144 c10 -32 -3 -32 -20 1 -14 26
-14 30 -1 25 8 -3 17 -15 21 -26z m49 -28 c3 -5 1 -10 -4 -10 -6 0 -11 5 -11
10 0 6 2 10 4 10 3 0 8 -4 11 -10z m-45 -24 c0 -3 -4 -8 -10 -11 -5 -3 -10 -1
-10 4 0 6 5 11 10 11 6 0 10 -2 10 -4z m30 -24 c0 -4 -9 -13 -20 -20 -22 -13
-27 -3 -8 16 14 14 28 16 28 4z m144 2 c9 -3 16 -11 16 -16 0 -7 -5 -6 -13 1
-8 6 -17 8 -20 4 -4 -3 -7 -1 -7 5 0 14 2 14 24 6z m356 -24 c0 -5 -6 -10 -12
-11 -10 0 -10 -2 0 -6 6 -2 10 -9 6 -14 -3 -5 0 -9 6 -9 18 0 5 -75 -14 -78
-9 -2 -16 1 -16 7 0 6 6 11 13 12 10 0 10 2 0 6 -7 2 -13 11 -13 19 0 8 -5 14
-10 14 -6 0 -10 -6 -9 -12 4 -33 -1 -39 -22 -28 -11 7 -27 9 -35 6 -8 -3 -16
-4 -18 -3 -1 1 -10 -4 -19 -12 -10 -7 -17 -10 -17 -5 0 14 14 31 30 37 12 4
11 6 -2 6 -18 1 -23 12 -11 24 3 4 11 3 18 -1 6 -4 4 0 -5 8 -14 13 -15 18 -4
28 19 18 58 16 50 -3 -4 -10 1 -14 17 -12 14 1 21 -3 19 -11 -1 -8 2 -11 8 -7
6 4 9 13 6 20 -5 13 12 35 26 35 4 0 8 -4 8 -10z m-318 -32 c-8 -8 -9 -4 -5
13 4 13 8 18 11 10 2 -7 -1 -18 -6 -23z m-138 -13 c-4 -8 -10 -12 -15 -9 -14
8 -10 24 6 24 9 0 12 -6 9 -15z m256 -17 c0 -9 3 -8 10 2 7 11 12 12 20 4 14
-14 -14 -39 -35 -30 -17 6 -21 36 -5 36 6 0 10 -6 10 -12z m-200 -33 c0 -23
-16 -17 -28 10 -11 24 -10 25 8 15 11 -6 20 -17 20 -25z m-46 17 c2 -4 -4 -8
-14 -8 -10 0 -16 4 -14 8 3 4 9 8 14 8 5 0 11 -4 14 -8z m-57 -17 c18 -19 17
-20 -19 -29 -22 -5 -28 -3 -28 9 0 9 5 13 10 10 6 -3 10 1 10 9 0 20 7 20 27
1z m148 -25 c3 -5 1 -10 -4 -10 -6 0 -11 5 -11 10 0 6 2 10 4 10 3 0 8 -4 11
-10z m45 -10 c0 -5 -2 -10 -4 -10 -3 0 -8 5 -11 10 -3 6 -1 10 4 10 6 0 11 -4
11 -10z m320 -5 c0 -9 -9 -15 -22 -15 -22 1 -23 1 -4 15 25 19 26 19 26 0z
m1933 -64 c-1 -1 -6 0 -12 4 -13 7 -15 58 -3 69 6 7 21 -63 15 -73z m-2420 23
c-6 -17 -25 -14 -31 6 -3 7 0 10 7 6 6 -4 11 -2 11 4 0 6 4 9 10 5 5 -3 7 -12
3 -21z m387 -15 c0 -6 -4 -7 -10 -4 -5 3 -10 11 -10 16 0 6 5 7 10 4 6 -3 10
-11 10 -16z m70 -13 c40 -12 42 -14 22 -20 -15 -5 -29 -3 -40 7 -9 8 -24 17
-32 20 -31 11 7 6 50 -7z m-510 -18 c0 -7 -5 -20 -10 -28 -8 -11 -9 -9 -8 13
2 26 18 40 18 15z m145 -14 c6 0 18 -2 28 -2 9 -1 17 -6 17 -12 0 -14 -27 -12
-33 3 -4 10 -7 10 -18 0 -19 -19 -29 -16 -29 8 0 14 4 18 13 12 6 -4 17 -8 22
-9z m457 -27 c6 -12 6 -17 0 -13 -18 11 -40 -5 -51 -36 -7 -19 -15 -27 -23
-22 -8 5 -8 9 -1 11 11 4 5 53 -6 53 -4 0 -13 -6 -20 -12 -11 -10 -13 -10 -7
0 4 7 1 12 -8 12 -9 0 -16 5 -16 10 0 7 16 9 40 6 33 -4 40 -2 45 15 6 16 9
18 21 8 8 -7 20 -21 26 -32z m-512 4 c0 -5 -7 -11 -14 -14 -10 -4 -13 -1 -9 9
6 15 23 19 23 5z m340 -1 c0 -5 -2 -10 -4 -10 -3 0 -8 5 -11 10 -3 6 -1 10 4
10 6 0 11 -4 11 -10z m-100 -10 c0 -5 -2 -10 -4 -10 -3 0 -8 5 -11 10 -3 6 -1
10 4 10 6 0 11 -4 11 -10z m-146 -16 c3 -8 2 -12 -4 -9 -6 3 -10 10 -10 16 0
14 7 11 14 -7z m59 2 c4 -10 1 -13 -9 -9 -15 6 -19 23 -5 23 5 0 11 -7 14 -14z
m128 -13 c13 -17 13 -17 -6 -3 -11 8 -22 16 -24 17 -2 2 0 3 6 3 6 0 17 -8 24
-17z m2574 -4 c11 -17 -1 -21 -15 -4 -8 9 -8 15 -2 15 6 0 14 -5 17 -11z
m-2600 -9 c3 -5 2 -10 -4 -10 -5 0 -13 5 -16 10 -3 6 -2 10 4 10 5 0 13 -4 16
-10z m-170 -19 c-3 -6 -11 -11 -17 -11 -6 0 -6 6 2 15 14 17 26 13 15 -4z
m275 -11 c8 -5 12 -11 10 -14 -3 -2 -14 2 -24 10 -22 15 -10 19 14 4z m-85
-40 c3 -5 1 -10 -4 -10 -6 0 -11 5 -11 10 0 6 2 10 4 10 3 0 8 -4 11 -10z m11
-56 c2 -12 -1 -13 -12 -3 -7 6 -11 16 -8 21 7 11 17 3 20 -18z m-106 -34 c0
-5 -2 -10 -4 -10 -3 0 -8 5 -11 10 -3 6 -1 10 4 10 6 0 11 -4 11 -10z m3058
-83 c61 -49 76 -203 29 -292 -15 -27 -27 -56 -27 -62 0 -50 -197 -233 -305
-283 -111 -52 -255 -86 -255 -61 0 6 -5 11 -11 11 -5 0 -7 -5 -3 -11 4 -8 -1
-9 -17 -4 -37 12 -86 10 -102 -4 -10 -8 -17 -9 -22 -1 -3 5 2 10 11 10 39 0
-9 26 -53 29 -7 1 -10 8 -7 19 5 13 4 14 -4 3 -6 -8 -8 -21 -5 -30 4 -14 3
-14 -9 -1 -7 8 -24 15 -38 15 -14 0 -33 8 -42 18 -20 19 -24 37 -8 37 20 0 10
19 -12 22 -12 2 -24 9 -26 17 -3 9 0 12 11 8 10 -4 17 1 20 15 4 14 11 19 22
14 17 -6 95 14 95 25 0 4 11 10 25 13 22 6 24 9 15 26 -11 21 -6 40 11 40 6 0
7 -4 4 -10 -3 -5 -2 -10 4 -10 5 0 15 8 20 18 9 15 12 15 21 2 7 -11 10 -11
10 -2 0 7 4 11 9 7 5 -3 28 1 52 9 23 8 48 12 56 9 8 -3 19 0 24 8 8 12 10 12
18 -1 14 -20 24 -6 23 31 -1 31 0 31 20 13 19 -18 20 -18 17 1 -3 16 1 19 19
17 15 -2 22 2 22 12 0 9 9 17 20 18 11 0 26 1 33 2 18 1 36 36 37 69 0 19 4
27 13 24 6 -2 11 -15 10 -28 l-3 -24 20 25 c11 14 20 31 20 38 0 7 7 15 15 18
11 5 13 10 5 19 -7 9 -6 16 5 25 8 7 15 20 16 29 0 11 2 12 6 3 4 -10 9 -7 17
10 7 12 20 22 29 22 9 -1 17 4 17 12 0 18 9 18 30 -1 15 -13 16 -12 14 14 -4
58 41 83 84 48z m289 -199 c-3 -8 -6 -5 -6 6 -1 11 2 17 5 13 3 -3 4 -12 1
-19z m169 -43 c18 -13 18 -14 -4 -8 -12 3 -25 9 -28 14 -8 14 10 11 32 -6z
m-376 -55 c0 -5 -4 -10 -10 -10 -5 0 -10 5 -10 10 0 6 5 10 10 10 6 0 10 -4
10 -10z m368 -19 c3 -8 -1 -12 -9 -9 -7 2 -15 10 -17 17 -3 8 1 12 9 9 7 -2
15 -10 17 -17z m-143 -31 c3 -5 1 -10 -4 -10 -6 0 -11 5 -11 10 0 6 2 10 4 10
3 0 8 -4 11 -10z m175 -10 c0 -6 9 -20 20 -32 11 -12 20 -29 20 -38 0 -9 9
-26 20 -38 14 -15 16 -23 8 -28 -7 -5 -4 -10 11 -16 16 -6 21 -13 16 -27 -3
-11 1 -26 10 -35 9 -9 14 -20 10 -25 -3 -6 3 -15 12 -21 17 -10 17 -11 -2 -8
-13 2 -26 20 -40 53 -11 28 -23 52 -27 53 -5 2 -8 12 -8 23 0 10 -6 19 -13 19
-7 0 -14 12 -15 27 -1 14 -9 34 -17 43 -18 20 -28 60 -14 60 5 0 9 -5 9 -10z
m-193 -32 c-3 -8 -6 -5 -6 6 -1 11 2 17 5 13 3 -3 4 -12 1 -19z m553 -73 c7
-9 8 -15 2 -15 -5 0 -12 7 -16 15 -3 8 -4 15 -2 15 2 0 9 -7 16 -15z m-575
-43 c-3 -3 -11 0 -18 7 -9 10 -8 11 6 5 10 -3 15 -9 12 -12z m109 -14 c9 -17
16 -34 16 -37 -1 -12 -40 42 -40 55 0 22 7 17 24 -18z m545 -20 c13 -16 20
-32 16 -36 -3 -4 -11 1 -17 12 -5 10 -21 27 -34 39 -13 11 -24 24 -24 29 0 13
33 -11 59 -44z m-506 -48 c3 -11 3 -20 1 -20 -2 0 -8 9 -14 20 -6 11 -7 20 -2
20 6 0 12 -9 15 -20z m-203 1 c0 -6 -4 -13 -10 -16 -5 -3 -10 1 -10 9 0 9 5
16 10 16 6 0 10 -4 10 -9z m220 -34 c0 -1 4 -17 9 -35 6 -20 6 -30 0 -27 -5 4
-9 14 -9 24 0 9 -5 22 -12 29 -9 9 -9 12 0 12 7 0 12 -1 12 -3z m606 -55 c-8
-7 -25 8 -37 31 -11 21 -10 21 15 -2 14 -14 24 -26 22 -29z m-1906 -2 c-20
-13 -50 -13 -50 0 0 5 6 7 14 4 7 -3 16 3 20 12 5 14 9 15 19 5 9 -9 9 -14 -3
-21z m-65 10 c3 -6 -1 -7 -9 -4 -18 7 -21 14 -7 14 6 0 13 -4 16 -10z m1573
-26 c-1 -33 -3 -35 -15 -18 -21 29 -17 42 14 53 1 1 2 -15 1 -35z"/>
<path d="M3255 3322 c-11 -2 -24 -9 -30 -14 -7 -7 -1 -8 20 -3 44 10 53 26 10
17z"/>
<path d="M3290 3320 c0 -5 5 -10 11 -10 6 0 17 -7 26 -15 8 -8 19 -12 25 -9 5
4 -3 15 -19 25 -32 21 -43 24 -43 9z"/>
<path d="M468 1363 c7 -3 16 -2 19 1 4 3 -2 6 -13 5 -11 0 -14 -3 -6 -6z"/>
<path d="M3220 4665 c0 -9 6 -12 15 -9 8 4 15 10 15 15 0 5 -7 9 -15 9 -8 0
-15 -7 -15 -15z"/>
<path d="M3383 4655 c-17 -15 -21 -23 -10 -19 9 3 17 9 17 14 0 4 10 12 23 18
12 6 17 11 10 11 -7 1 -25 -10 -40 -24z"/>
<path d="M3221 4604 c0 -11 3 -14 6 -6 3 7 2 16 -1 19 -3 4 -6 -2 -5 -13z"/>
<path d="M3190 4571 c0 -5 5 -13 10 -16 6 -3 10 -2 10 4 0 5 -4 13 -10 16 -5
3 -10 2 -10 -4z"/>
<path d="M794 4526 c-38 -17 -46 -36 -28 -61 12 -16 18 -18 34 -7 18 11 20 10
20 -8 0 -12 6 -20 13 -19 6 1 19 0 27 -4 37 -14 70 -13 84 2 12 14 12 21 -1
53 -12 30 -22 39 -48 44 -19 3 -38 3 -44 -1 -6 -3 -11 -1 -11 4 0 14 -8 13
-46 -3z"/>
<path d="M4014 4464 c11 -29 26 -142 21 -156 -4 -9 0 -15 9 -15 15 0 15 10 2
82 -7 41 -27 105 -32 105 -4 0 -3 -7 0 -16z"/>
<path d="M4954 4402 c-16 -29 -19 -46 -13 -77 8 -45 2 -84 -18 -103 -17 -17
-17 -33 1 -26 10 4 16 -10 22 -53 l8 -58 7 86 c4 48 14 100 23 117 20 38 22
152 4 152 -7 0 -22 -17 -34 -38z"/>
<path d="M3945 4310 c-3 -5 -2 -10 4 -10 5 0 13 5 16 10 3 6 2 10 -4 10 -5 0
-13 -4 -16 -10z"/>
<path d="M3990 4310 c-13 -8 -12 -10 3 -10 9 0 17 5 17 10 0 12 -1 12 -20 0z"/>
<path d="M3940 4230 c0 -5 5 -10 11 -10 5 0 7 5 4 10 -3 6 -8 10 -11 10 -2 0
-4 -4 -4 -10z"/>
<path d="M3705 4196 c0 -21 14 -27 44 -17 6 2 -31 41 -38 41 -3 0 -6 -11 -6
-24z"/>
<path d="M0 4060 l0 -92 22 15 c24 15 25 30 6 76 -6 14 -12 38 -13 53 -1 15
-5 31 -8 35 -4 3 -7 -35 -7 -87z"/>
<path d="M4858 4002 c-56 -3 -56 -3 -48 -30 50 -167 100 -306 111 -308 30 -4
55 -6 67 -5 17 1 16 51 -2 51 -39 0 -87 245 -55 277 15 15 -4 19 -73 15z"/>
<path d="M4959 3991 c9 -6 11 -16 7 -27 -6 -15 -4 -16 5 -7 14 14 5 43 -13 43
-10 0 -9 -3 1 -9z"/>
<path d="M11 3946 c-7 -8 -11 -32 -9 -53 l3 -38 18 37 c10 20 22 40 27 43 13
8 3 25 -14 25 -8 0 -19 -6 -25 -14z"/>
<path d="M4701 3904 c0 -11 3 -14 6 -6 3 7 2 16 -1 19 -3 4 -6 -2 -5 -13z"/>
<path d="M929 3857 c15 -19 41 -23 41 -7 0 6 -4 10 -9 10 -5 0 -18 3 -28 7
-16 6 -16 5 -4 -10z"/>
<path d="M4245 3820 c-3 -5 -2 -10 4 -10 5 0 13 5 16 10 3 6 2 10 -4 10 -5 0
-13 -4 -16 -10z"/>
<path d="M4330 3781 c0 -5 -12 -11 -27 -13 -28 -3 -37 -22 -22 -43 9 -12 89
-7 89 5 0 4 -9 10 -21 13 -16 4 -19 11 -14 26 3 12 4 21 1 21 -3 0 -6 -4 -6
-9z"/>
<path d="M4209 3757 c15 -19 41 -23 41 -7 0 6 -4 10 -9 10 -5 0 -18 3 -28 7
-16 6 -16 5 -4 -10z"/>
<path d="M3820 3688 c11 -12 23 -19 26 -15 9 9 -15 37 -33 37 -10 0 -8 -6 7
-22z"/>
<path d="M4329 3699 c-10 -6 -5 -9 16 -9 17 0 41 -3 55 -7 14 -3 22 -3 18 1
-12 13 -76 24 -89 15z"/>
<path d="M4125 3649 c-11 -16 -1 -19 13 -3 7 8 8 14 3 14 -5 0 -13 -5 -16 -11z"/>
<path d="M4078 3643 c7 -3 16 -2 19 1 4 3 -2 6 -13 5 -11 0 -14 -3 -6 -6z"/>
<path d="M4270 3637 c0 -15 35 -37 58 -37 27 0 60 15 52 23 -8 7 -110 20 -110
14z"/>
<path d="M4399 3612 c12 -8 11 -11 -5 -15 -10 -2 4 -3 31 -1 35 2 43 1 25 -5
-25 -7 -24 -8 9 -15 23 -6 36 -4 41 4 6 9 9 9 13 -1 4 -12 7 -11 16 1 11 16
13 15 -104 35 -28 5 -36 4 -26 -3z"/>
<path d="M4680 3611 c0 -19 35 -35 81 -36 26 -1 46 2 43 6 -3 5 -16 9 -30 9
-14 0 -40 7 -59 14 -19 8 -35 11 -35 7z"/>
<path d="M4920 3607 c0 -2 18 -40 40 -83 l39 -79 1 51 c0 28 -3 66 -6 83 -6
27 -10 31 -40 31 -19 0 -34 -2 -34 -3z"/>
<path d="M4630 3555 c5 -6 31 -12 56 -13 58 0 45 14 -19 21 -37 3 -45 2 -37
-8z"/>
<path d="M4227 3537 c-3 -8 -2 -20 3 -26 5 -9 8 -4 8 13 0 29 -3 32 -11 13z"/>
<path d="M403 3523 c9 -2 25 -2 35 0 9 3 1 5 -18 5 -19 0 -27 -2 -17 -5z"/>
<path d="M325 3489 c-9 -14 -2 -20 14 -10 8 6 9 11 3 15 -6 3 -14 1 -17 -5z"/>
<path d="M4600 3489 c0 -5 9 -9 20 -9 11 0 20 2 20 4 0 2 -9 6 -20 9 -11 3
-20 1 -20 -4z"/>
<path d="M900 3431 c0 -6 4 -13 10 -16 6 -3 7 1 4 9 -7 18 -14 21 -14 7z"/>
<path d="M4122 3418 c-37 -23 -40 -33 -13 -47 25 -14 35 -2 13 16 -9 8 -11 12
-4 8 6 -3 12 -2 12 4 0 5 15 11 33 13 30 3 31 4 12 15 -17 9 -27 8 -53 -9z"/>
<path d="M4209 3414 c-12 -15 -13 -15 43 -18 30 -2 68 -32 68 -53 0 -10 -4
-11 -19 -1 -15 9 -22 8 -35 -4 -10 -10 -28 -15 -52 -13 -35 4 -35 3 -18 -16
17 -19 40 -27 30 -10 -3 5 9 8 27 7 20 0 31 3 30 11 -2 7 4 10 12 7 30 -12 11
-41 -30 -46 l-30 -4 25 -11 c21 -9 29 -7 52 14 15 14 27 33 27 42 0 9 3 27 6
41 6 24 2 27 -59 47 -55 18 -67 19 -77 7z"/>
<path d="M900 3340 c0 -5 5 -10 10 -10 6 0 10 5 10 10 0 6 -4 10 -10 10 -5 0
-10 -4 -10 -10z"/>
<path d="M950 3332 c0 -9 92 -43 99 -37 6 6 -30 45 -41 45 -5 0 -6 -4 -3 -10
4 -7 -3 -7 -20 0 -32 12 -35 12 -35 2z"/>
<path d="M4475 3310 c3 -5 11 -10 16 -10 6 0 7 5 4 10 -3 6 -11 10 -16 10 -6
0 -7 -4 -4 -10z"/>
<path d="M1065 3280 c-3 -5 3 -10 15 -10 12 0 18 5 15 10 -3 6 -10 10 -15 10
-5 0 -12 -4 -15 -10z"/>
<path d="M4595 3230 c3 -5 8 -10 11 -10 2 0 4 5 4 10 0 6 -5 10 -11 10 -5 0
-7 -4 -4 -10z"/>
<path d="M155 3080 c-3 -5 -1 -10 4 -10 6 0 11 5 11 10 0 6 -2 10 -4 10 -3 0
-8 -4 -11 -10z"/>
<path d="M250 3074 c0 -8 5 -12 10 -9 6 4 8 11 5 16 -9 14 -15 11 -15 -7z"/>
<path d="M100 3070 c0 -5 5 -10 10 -10 6 0 10 5 10 10 0 6 -4 10 -10 10 -5 0
-10 -4 -10 -10z"/>
<path d="M205 3070 c-3 -5 -1 -10 4 -10 6 0 11 5 11 10 0 6 -2 10 -4 10 -3 0
-8 -4 -11 -10z"/>
<path d="M365 3070 c-3 -5 1 -10 9 -10 9 0 16 5 16 10 0 6 -4 10 -9 10 -6 0
-13 -4 -16 -10z"/>
<path d="M1125 3070 c-3 -5 -1 -10 4 -10 6 0 11 5 11 10 0 6 -2 10 -4 10 -3 0
-8 -4 -11 -10z"/>
<path d="M240 3024 c0 -8 5 -12 10 -9 6 3 10 10 10 16 0 5 -4 9 -10 9 -5 0
-10 -7 -10 -16z"/>
<path d="M941 2982 c-17 -32 -13 -52 9 -52 17 0 19 5 13 33 -8 41 -9 43 -22
19z"/>
<path d="M1037 2519 c7 -7 15 -10 18 -7 3 3 -2 9 -12 12 -14 6 -15 5 -6 -5z"/>
<path d="M750 2499 c-12 -9 -12 -10 4 -5 11 4 23 1 28 -6 7 -10 9 -10 6 1 -6
20 -20 23 -38 10z"/>
<path d="M737 2456 c-4 -10 -5 -21 -2 -24 9 -9 17 6 13 25 -3 17 -4 17 -11 -1z"/>
<path d="M800 2430 c0 -21 35 -46 44 -31 3 5 -4 11 -15 14 -15 4 -20 11 -16
21 4 9 2 16 -3 16 -6 0 -10 -9 -10 -20z"/>
<path d="M715 2410 c3 -5 11 -10 16 -10 6 0 7 5 4 10 -3 6 -11 10 -16 10 -6 0
-7 -4 -4 -10z"/>
<path d="M3725 2400 c3 -5 8 -10 11 -10 2 0 4 5 4 10 0 6 -5 10 -11 10 -5 0
-7 -4 -4 -10z"/>
<path d="M158 2373 c6 -2 18 -2 25 0 6 3 1 5 -13 5 -14 0 -19 -2 -12 -5z"/>
<path d="M350 2370 c34 -11 60 -11 35 0 -11 5 -29 8 -40 8 -16 0 -15 -2 5 -8z"/>
<path d="M107 2363 c-14 -13 -6 -19 29 -20 32 -1 33 0 17 13 -20 15 -36 17
-46 7z"/>
<path d="M740 2350 c0 -5 5 -10 10 -10 6 0 10 5 10 10 0 6 -4 10 -10 10 -5 0
-10 -4 -10 -10z"/>
<path d="M65 2297 c-23 -37 -51 -47 -58 -20 -2 10 -5 -33 -5 -94 -1 -105 8
-141 23 -93 6 18 8 18 21 5 12 -12 19 -12 35 -2 12 7 17 18 13 27 -4 8 -9 34
-11 57 -4 39 -3 41 26 48 27 6 29 9 18 26 -10 16 -8 21 11 34 12 9 22 22 22
28 0 9 -2 9 -8 0 -8 -13 -52 -6 -52 8 0 18 -16 7 -35 -24z m29 -22 c-4 -8 -12
-15 -20 -15 -8 0 -11 6 -8 15 4 8 12 15 20 15 8 0 11 -6 8 -15z m-24 -92 c0
-12 -14 -18 -35 -13 -5 1 -1 -8 9 -19 10 -11 23 -18 27 -15 5 3 9 -4 9 -16 l0
-21 -30 21 c-27 19 -40 57 -25 71 10 10 45 4 45 -8z"/>
<path d="M36 2305 c-3 -8 -1 -15 4 -15 6 0 10 7 10 15 0 8 -2 15 -4 15 -2 0
-6 -7 -10 -15z"/>
<path d="M505 2310 c-3 -5 -1 -10 4 -10 6 0 11 5 11 10 0 6 -2 10 -4 10 -3 0
-8 -4 -11 -10z"/>
<path d="M3891 2294 c0 -11 3 -14 6 -6 3 7 2 16 -1 19 -3 4 -6 -2 -5 -13z"/>
<path d="M3670 2259 c0 -5 5 -7 10 -4 6 3 10 8 10 11 0 2 -4 4 -10 4 -5 0 -10
-5 -10 -11z"/>
<path d="M690 2240 c-8 -5 -12 -12 -9 -15 4 -3 12 1 19 10 14 17 11 19 -10 5z"/>
<path d="M3673 2198 c-10 -17 -13 -103 -3 -92 7 9 21 104 14 104 -1 0 -6 -6
-11 -12z"/>
<path d="M3911 2194 c0 -11 3 -14 6 -6 3 7 2 16 -1 19 -3 4 -6 -2 -5 -13z"/>
<path d="M3808 2173 c7 -3 16 -2 19 1 4 3 -2 6 -13 5 -11 0 -14 -3 -6 -6z"/>
<path d="M0 2050 c0 -5 4 -10 9 -10 6 0 13 5 16 10 3 6 -1 10 -9 10 -9 0 -16
-4 -16 -10z"/>
<path d="M190 1995 c-7 -8 -18 -15 -25 -15 -15 0 -50 -38 -43 -46 12 -11 70
-6 79 7 8 14 13 69 5 69 -2 0 -9 -7 -16 -15z"/>
<path d="M3962 1950 c0 -14 2 -19 5 -12 2 6 2 18 0 25 -3 6 -5 1 -5 -13z"/>
<path d="M3972 1905 c0 -11 4 -31 8 -45 6 -20 8 -21 8 -5 0 11 -4 31 -8 45 -6
20 -8 21 -8 5z"/>
<path d="M94 1828 l-19 -23 25 20 c14 11 27 21 29 22 2 2 0 3 -6 3 -5 0 -18
-10 -29 -22z"/>
<path d="M3997 1790 c6 -48 21 -96 22 -70 0 8 -6 38 -14 65 l-15 50 7 -45z"/>
<path d="M30 1748 c-27 -37 -37 -58 -26 -58 1 0 17 23 34 50 38 61 33 65 -8 8z"/>
<path d="M107 1696 c-3 -8 -2 -18 4 -22 16 -9 22 2 11 21 -8 15 -10 16 -15 1z"/>
<path d="M4022 1685 c0 -11 4 -31 8 -45 6 -20 8 -21 8 -5 0 11 -4 31 -8 45 -6
20 -8 21 -8 5z"/>
<path d="M1131 1656 c8 -8 79 -35 79 -30 0 3 -16 12 -35 20 -33 14 -53 18 -44
10z"/>
<path d="M4041 1594 c0 -11 3 -14 6 -6 3 7 2 16 -1 19 -3 4 -6 -2 -5 -13z"/>
<path d="M920 1591 c0 -15 70 -18 82 -4 8 10 1 13 -36 13 -25 0 -46 -4 -46 -9z"/>
<path d="M2990 1590 c0 -5 5 -10 11 -10 5 0 7 5 4 10 -3 6 -8 10 -11 10 -2 0
-4 -4 -4 -10z"/>
<path d="M1262 1550 c0 -14 2 -19 5 -12 2 6 2 18 0 25 -3 6 -5 1 -5 -13z"/>
<path d="M4051 1554 c0 -11 3 -14 6 -6 3 7 2 16 -1 19 -3 4 -6 -2 -5 -13z"/>
<path d="M873 1518 c2 -7 16 -13 32 -13 16 0 30 6 33 13 2 8 -8 12 -33 12 -25
0 -35 -4 -32 -12z"/>
<path d="M4061 1494 c0 -11 3 -14 6 -6 3 7 2 16 -1 19 -3 4 -6 -2 -5 -13z"/>
<path d="M4082 1410 c0 -14 2 -19 5 -12 2 6 2 18 0 25 -3 6 -5 1 -5 -13z"/>
<path d="M3016 1327 c1 -12 3 -24 4 -27 1 -3 2 -8 1 -12 -1 -11 11 -10 29 2
12 8 12 10 -3 16 -9 3 -17 12 -17 19 0 8 -4 16 -8 19 -5 3 -7 -5 -6 -17z"/>
<path d="M4102 1315 c0 -16 2 -22 5 -12 2 9 2 23 0 30 -3 6 -5 -1 -5 -18z"/>
<path d="M4011 1314 c0 -11 3 -14 6 -6 3 7 2 16 -1 19 -3 4 -6 -2 -5 -13z"/>
<path d="M718 1313 c6 -2 18 -2 25 0 6 3 1 5 -13 5 -14 0 -19 -2 -12 -5z"/>
<path d="M803 1303 c4 -3 2 -12 -4 -20 -15 -17 -2 -17 16 1 14 14 10 26 -8 26
-6 0 -7 -3 -4 -7z"/>
<path d="M4111 1264 c0 -11 3 -14 6 -6 3 7 2 16 -1 19 -3 4 -6 -2 -5 -13z"/>
<path d="M4121 1223 c-1 -12 7 -59 18 -105 10 -46 24 -110 31 -143 7 -33 14
-55 16 -50 2 6 -12 80 -30 165 -19 85 -35 145 -35 133z"/>
<path d="M955 1220 c3 -5 8 -10 11 -10 2 0 4 5 4 10 0 6 -5 10 -11 10 -5 0 -7
-4 -4 -10z"/>
<path d="M960 1190 c0 -5 5 -10 11 -10 5 0 7 5 4 10 -3 6 -8 10 -11 10 -2 0
-4 -4 -4 -10z"/>
<path d="M1000 1190 c0 -5 5 -10 11 -10 5 0 7 5 4 10 -3 6 -8 10 -11 10 -2 0
-4 -4 -4 -10z"/>
<path d="M920 1180 c0 -5 5 -10 10 -10 6 0 10 5 10 10 0 6 -4 10 -10 10 -5 0
-10 -4 -10 -10z"/>
<path d="M980 1125 c0 -15 4 -24 10 -20 6 3 10 12 10 20 0 8 -4 17 -10 20 -6
4 -10 -5 -10 -20z"/>
<path d="M955 1120 c3 -5 8 -10 11 -10 2 0 4 5 4 10 0 6 -5 10 -11 10 -5 0 -7
-4 -4 -10z"/>
<path d="M1014 1108 l-19 -23 23 19 c21 18 27 26 19 26 -2 0 -12 -10 -23 -22z"/>
<path d="M14 1055 c-4 -8 -4 -22 0 -30 3 -8 1 -15 -4 -15 -5 0 -8 -22 -8 -50
1 -27 4 -50 8 -50 19 0 44 96 28 106 -6 4 -5 10 2 14 14 9 6 40 -10 40 -6 0
-13 -7 -16 -15z"/>
<path d="M854 1059 c-9 -16 2 -22 21 -11 15 8 16 10 1 15 -8 3 -18 2 -22 -4z"/>
<path d="M870 965 c7 -9 15 -13 17 -11 7 7 -7 26 -19 26 -6 0 -6 -6 2 -15z"/>
<path d="M901 958 c-1 -10 -5 -18 -11 -18 -5 0 -10 -6 -10 -14 0 -8 -3 -16 -7
-19 -5 -2 -3 -2 4 -1 7 2 14 -11 16 -29 2 -18 3 -14 2 10 -1 23 2 46 7 51 6 6
8 16 5 24 -4 9 -6 7 -6 -4z"/>
<path d="M861 934 c0 -11 3 -14 6 -6 3 7 2 16 -1 19 -3 4 -6 -2 -5 -13z"/>
<path d="M635 871 c-3 -5 -1 -12 5 -16 5 -3 10 1 10 9 0 18 -6 21 -15 7z"/>
<path d="M680 860 c0 -5 5 -10 10 -10 6 0 10 5 10 10 0 6 -4 10 -10 10 -5 0
-10 -4 -10 -10z"/>
<path d="M735 859 c-11 -17 1 -21 15 -4 8 9 8 15 2 15 -6 0 -14 -5 -17 -11z"/>
<path d="M795 840 c2 -27 15 -38 15 -12 0 11 -4 23 -8 26 -5 3 -8 -4 -7 -14z"/>
<path d="M623 840 c2 -8 1 -24 -4 -36 -5 -15 -3 -21 7 -21 16 0 18 35 3 57 -9
13 -10 13 -6 0z"/>
<path d="M680 826 c0 -8 -3 -21 -6 -30 -4 -10 -1 -16 8 -16 16 0 23 46 8 55
-6 3 -10 0 -10 -9z"/>
<path d="M734 793 c2 -10 13 -20 26 -21 26 -4 48 12 31 22 -6 4 -11 2 -11 -3
0 -6 -7 -11 -15 -11 -8 0 -15 7 -15 15 0 8 -4 15 -9 15 -5 0 -8 -8 -7 -17z"/>
<path d="M880 801 c0 -5 -3 -16 -6 -25 -3 -9 -2 -16 3 -16 5 0 10 11 11 25 1
14 0 25 -3 25 -3 0 -5 -4 -5 -9z"/>
<path d="M843 755 c0 -8 4 -12 9 -9 5 3 6 10 3 15 -9 13 -12 11 -12 -6z"/>
<path d="M147 733 c-10 -10 -8 -46 4 -63 8 -12 9 -12 7 5 -1 11 3 30 10 43 10
18 10 22 -1 22 -8 0 -17 -3 -20 -7z"/>
<path d="M207 700 c4 -8 7 -32 6 -52 -1 -21 3 -38 7 -38 10 0 15 17 24 71 6
35 5 37 -19 35 -19 -1 -23 -5 -18 -16z"/>
<path d="M283 703 c-3 -10 -7 -21 -9 -24 -2 -3 3 -6 11 -6 7 0 15 11 18 24 5
27 -11 31 -20 6z"/>
<path d="M334 711 c3 -4 0 -31 -8 -59 -15 -61 4 -64 23 -3 11 39 7 71 -11 71
-5 0 -7 -4 -4 -9z"/>
<path d="M396 704 c-5 -14 -4 -15 9 -4 17 14 19 20 6 20 -5 0 -12 -7 -15 -16z"/>
<path d="M446 677 c4 -20 3 -27 -5 -23 -7 5 -11 -2 -11 -18 0 -14 5 -26 11
-26 5 0 8 4 4 9 -3 5 0 13 5 16 6 4 10 17 8 28 -1 12 1 27 4 33 4 6 0 11 -8
11 -11 0 -13 -7 -8 -30z"/>
<path d="M134 643 c3 -16 -1 -23 -12 -23 -8 0 -13 -3 -9 -6 10 -10 47 7 47 22
0 8 -4 13 -9 10 -5 -4 -12 0 -15 6 -4 7 -4 3 -2 -9z"/>
<path d="M277 630 c3 -11 7 -20 9 -20 2 0 4 9 4 20 0 11 -4 20 -9 20 -5 0 -7
-9 -4 -20z"/>
<path d="M4235 619 c2 -19 5 -58 6 -87 2 -40 7 -56 21 -63 10 -5 18 -8 18 -7
0 27 -32 174 -40 182 -6 6 -8 -2 -5 -25z"/>
<path d="M4843 165 c0 -8 4 -12 9 -9 4 3 8 9 8 15 0 5 -4 9 -8 9 -5 0 -9 -7
-9 -15z"/>
<path d="M4871 145 c0 -20 20 -55 33 -55 3 0 6 7 6 15 0 8 -5 15 -10 15 -6 0
-15 10 -20 23 -8 20 -9 20 -9 2z"/>
<path d="M4900 156 c0 -2 7 -9 15 -16 9 -7 15 -8 15 -2 0 5 -7 12 -15 16 -8 3
-15 4 -15 2z"/>
<path d="M4920 106 c0 -9 16 -26 35 -37 19 -12 32 -25 29 -30 -3 -5 0 -9 5 -9
16 0 13 36 -4 50 -8 7 -15 9 -15 4 0 -4 -11 3 -25 16 -21 20 -25 21 -25 6z"/>
<path d="M4887 53 c-2 -10 -8 -26 -12 -35 -6 -15 -2 -18 28 -18 40 0 61 28 27
37 -11 3 -20 12 -20 19 0 20 -17 17 -23 -3z"/>
</g>
</svg>
